<svg width="100%" height="100%" viewBox="0 0 40 40" fill="none" xmlns="http://www.w3.org/2000/svg"> <path d="M16.4761 2.75443C17.6825 -0.588817 22.4106 -0.588813 23.6171 2.75443L26.6381 11.1264C27.0214 12.1887 27.8579 13.0252 28.9202 13.4085L37.2922 16.4296C40.6354 17.636 40.6354 22.3641 37.2922 23.5705L28.9202 26.5916C27.8579 26.9749 27.0214 27.8114 26.6381 28.8737L23.6171 37.2457C22.4106 40.5889 17.6825 40.5889 16.4761 37.2457L13.455 28.8737C13.0717 27.8114 12.2352 26.9749 11.1729 26.5916L2.80094 23.5705C-0.542308 22.3641 -0.542304 17.636 2.80094 16.4296L11.1729 13.4085C12.2352 13.0252 13.0717 12.1887 13.455 11.1264L16.4761 2.75443Z" fill="#DC2C2C"></path> </svg>